<svg height="24" viewBox="0 0 24 24" width="24" xmlns="http://www.w3.org/2000/svg"><path d="m12.7297019 13.4843653c0 .0779706-.0129951.1689363-.0506809.2456074-.0272897.0792701-.0792701.1442456-.1429461.2092211-.0649755.063676-.1312505.1039608-.2092211.1429461-.0766711.0246906-.1676368.0376857-.2469069.0376857-.1689363 0-.3378726-.0649754-.466524-.1806318-.0519804-.0649755-.1039608-.129951-.1312506-.2092211-.0376857-.0766711-.0519804-.1676368-.0519804-.2456074 0-.1832309.0662751-.3521672.183231-.4678236.0636759-.0519804.1416465-.1039608.2209167-.1442456.1559411-.0649755.336573-.0649755.4925142 0 .0779706.0402848.1442456.0922652.2092211.1442456.063676.063676.1039608.1286515.1429461.2079216.0376858.0766711.0506809.1689363.0506809.259902zm-1.1812545-1.8569998-.1494437-2.04802771c-.0272897-.35866475.2430084-.67054715.6016731-.69783686.3586648-.0259902.6705472.24430788.6978369.60297263.002599.02988873.0012995.0649755 0 .09486423l-.1507432 2.04802771c-.0194926.2767956-.259902.4834177-.5366976.4652246-.2508054-.0194927-.4457319-.2196172-.4626255-.4652246zm-4.05057264 8.4728051h9.09656984v-1.4177654h-9.09656984zm-4.07526329-4.0167854h2.61461408 11.89051625 2.6029185l.7563148 1.29951-.0038985.649755v-.649755h-18.61418091zm8.55337463-14.82351028.7446193 1.29431194-.580881 1.00582072-.7264261 1.25662615-2.92779596 5.07328695-2.82383518 4.89395452h-1.48793892zm6.3260146 13.52400028-2.7874489-4.82118197-2.7874489-4.8198825.5938761-1.03051141.1494436-.25730297 6.3078214 10.92887885zm-9.43704145-2.9511871 3.11102685-5.39036739 4.8250806 8.34155449h-9.63846551zm14.03600725 11.0562309-2.5990199-2.59902c-.122154-.1208544-.2871917-.1897284-.4587271-.1897284h-1.9492649v-1.4177654h3.389122c.4704226 0 .8927633-.2430084 1.1266751-.6510545.2352113-.4067466.2339118-.8940629-.002599-1.3008095l-.9408452-1.623088s-.0012995-.0012995-.002599-.0012995l-7.4292986-12.87294581v-.00129951l-.9317486-1.62048894c-.4691231-.81479275-1.7842272-.81609226-2.2533503.00129951l-8.3610472 14.49343475c-.00129951 0-.00259902.0012995-.00259902.0012995l-.94084522 1.623088c-.23651082.4067466-.23651082.8927633-.00129951 1.3008095.23391179.4080461.65495303.6510545 1.12537564.6510545h3.52946909v1.4177654h-1.94796545c-.17283483 0-.3378726.068874-.46002653.1897284l-2.60031947 2.6003195c-.25340444.2547039-.25340444.6653491 0 .9187535.12735198.127352.29368926.191028.46002654.191028.16633727 0 .33137504-.063676.45872702-.191028l2.410591-2.4092915h2.32222433c.00259902 0 .00389853.0012995.00649755.0012995s.00389853-.0012995.00649755-.0012995h10.38308468c.0025991 0 .0038986.0012995.0064976.0012995s.0038985-.0012995.0064975-.0012995h2.3235239l2.407992 2.407992c.2534044.254704.6653491.254704.9187535 0 .2534045-.2534044.2534045-.6640496 0-.9187535z" fill-rule="evenodd"/></svg>