<svg height="24" viewBox="0 0 24 24" width="24" xmlns="http://www.w3.org/2000/svg"><path d="m17.5253333 6.1c-.4693333-.46933333-.4693333-1.22933333 0-1.69733333l.9413334-.94133334c.4693333-.46933333 1.2293333-.46933333 1.6973333 0 .4693333.468.4693333 1.228 0 1.69733334l-.9413333.94133333c-.2333334.23466667-.5413334.352-.848.352-.308 0-.6146667-.11733333-.8493334-.352zm2.6373334 12.3653333c.468.4693334.468 1.2293334 0 1.6986667-.2346667.2346667-.5426667.352-.8493334.352-.308 0-.6146666-.1173333-.8493333-.352l-.9413333-.9413333c-.4693334-.4693334-.4693334-1.2293334 0-1.6986667.4693333-.468 1.2293333-.468 1.6973333 0zm-14.0666667-.944c.468.4693334.46933333 1.228.00133333 1.6973334l-.94.9413333c-.23466666.2346667-.54266666.3533333-.84933333.3533333-.308 0-.61333333-.1173333-.848-.352-.468-.4693333-.46933333-1.228-.00133333-1.6973333l.94-.9413333c.46933333-.468 1.228-.4693334 1.69733333-.0013334zm-2.63466667-12.3653333c-.468-.46933333-.468-1.22933333 0-1.69733333.46933334-.46933334 1.22933334-.46933334 1.69866667 0l.94133333.94133333c.468.468.468 1.228 0 1.69733333-.23466666.23466667-.54266666.352-.84933333.352-.308 0-.61466667-.11733333-.84933333-.352zm20.15999997 6.656c0 .6626667-.5373333 1.2013333-1.2 1.2013333h-1.3306666c-.6626667 0-1.2013334-.5386666-1.2013334-1.2013333s.5386667-1.2 1.2013334-1.2h1.3306666c.6626667 0 1.2.5373333 1.2 1.2zm-10.612 9.2773333v1.332c0 .6626667-.5373333 1.2013334-1.2 1.2013334-.6626666 0-1.2-.5386667-1.2-1.2013334v-1.332c0-.6626666.5373334-1.2 1.2-1.2.6626667 0 1.2.5373334 1.2 1.2zm-10.4773333-8.08h-1.33066667c-.66266666 0-1.20133333-.5386666-1.20133333-1.2013333s.53866667-1.2 1.20133333-1.2h1.33066667c.66266667 0 1.2.5373333 1.2 1.2s-.53733333 1.2013333-1.2 1.2013333zm8.08-10.47866663v-1.33066667c0-.66266667.5386667-1.2 1.2013333-1.2.6626667 0 1.2.53733333 1.2 1.2v1.33066667c0 .66266666-.5373333 1.20133333-1.2 1.20133333-.6626666 0-1.2013333-.53866667-1.2013333-1.20133333zm1.2 13.41333333c-2.28 0-4.13466667-1.8546667-4.13466667-4.1333333 0-2.28000003 1.85466667-4.13333337 4.13466667-4.13333337 2.2786667 0 4.132 1.85333334 4.132 4.13333337 0 2.2786666-1.8533333 4.1333333-4.132 4.1333333zm0-10.668c-3.60266667 0-6.536 2.932-6.536 6.5346667 0 3.6026666 2.93333333 6.5346666 6.536 6.5346666 3.6026667 0 6.5333333-2.932 6.5333333-6.5346666 0-3.6026667-2.9306666-6.5346667-6.5333333-6.5346667z" fill-rule="evenodd"/></svg>