<svg height="24" viewBox="0 0 24 24" width="24" xmlns="http://www.w3.org/2000/svg"><path d="m3.17236583 10.5789278h15.53916257l-8.5083628-8.50611273c-.47382266-.47390448-.47382266-1.24216869 0-1.71607317.2274435-.22836806.5364785-.3567419.8587866-.3567419s.6313431.12837384.8587866.3567419l10.1014307 10.1014307c.3375144.3375144.4995213.7702828.5295226 1.2120517.0045002.0420018.0255011.0795034.0255011.1245053 0 .0435018-.0210009.0810034-.0255011.1245053-.0300013.4410188-.1920082.8737873-.5295226 1.2090516l-10.5154483 10.5169484c-.2370101.2370101-.5475234.3547651-.8595367.3547651-.3105132 0-.6210264-.117755-.85803655-.3555152-.47234701-.4750998-.47234701-1.2424733 0-1.7175732l8.92238045-8.9193803h-15.53916257c-.65403729-.0229912-1.17236583-.5598605-1.17236583-1.2143018 0-.6544412.51832854-1.1913106 1.17236583-1.2143017"/></svg>