<svg height="24" viewBox="0 0 24 24" width="24" xmlns="http://www.w3.org/2000/svg"><path d="m6 13.5h3v-3h-3zm0 4.5h3v-3h-3zm4.5-4.5h3v-3h-3zm0 4.5h3v-3h-3zm4.5-4.5h3v-3h-3zm0 4.5h3v-3h-3zm6-9c0-.82842712-.6715729-1.5-1.5-1.5h-15c-.82842712 0-1.5.67157288-1.5 1.5v10.5c0 .8284271.67157288 1.5 1.5 1.5h15c.8284271 0 1.5-.6715729 1.5-1.5zm0 15h-18c-1.65685425 0-3-1.3431458-3-3v-18c0-1.65685425 1.34314575-3 3-3h3v1.5c0 .82842712.67157288 1.5 1.5 1.5s1.5-.67157288 1.5-1.5v-1.5h6v1.5c0 .82842712.6715729 1.5 1.5 1.5s1.5-.67157288 1.5-1.5v-1.5h3c1.6575 0 3 1.3425 3 3v18c0 1.6575-1.3425 3-3 3z"/></svg>