<svg height="24" viewBox="0 0 24 24" width="24" xmlns="http://www.w3.org/2000/svg"><path d="m16.2885 14.91c.39.39.39 1.005 0 1.38-.18.195-.435.2835-.69.2835-.24 0-.495-.0885-.69-.2835l-2.9085-2.9115-2.9115 2.9115c-.18.195-.435.2835-.69.2835-.24 0-.495-.0885-.69-.2835-.375-.375-.375-.99 0-1.38l2.9115-2.91-2.9115-2.91c-.375-.375-.375-.99 0-1.3815.39-.375 1.005-.375 1.38 0l2.9115 2.9115 2.9085-2.9115c.39-.375 1.005-.375 1.38 0 .39.3915.39 1.0065 0 1.3815l-2.9085 2.91zm-4.2885-14.91c-6.6165 0-12 5.3835-12 12 0 6.6285 5.3835 12 12 12 6.63 0 12-5.3715 12-12 0-6.6165-5.37-12-12-12z" fill-rule="evenodd"/></svg>