<svg height="24" viewBox="0 0 24 24" width="24" xmlns="http://www.w3.org/2000/svg"><path d="m10.7997737 16.2512172c-.4423598.4650437-1.15850753.4650437-1.59973599 0l-2.86911636-3.0150529c-.44122847-.4650437-.44122847-1.2179149 0-1.6829586.44235982-.4638543 1.15850755-.4638543 1.59973601 0l2.06924836 2.1753578 6.06858838-6.37978075c.4412285-.46504367 1.1573762-.46504367 1.599736 0 .4423599.46385431.4423599 1.21672552 0 1.68176919zm1.2002263-16.2512172c-6.6165 0-12 5.3835-12 12 0 6.6285 5.3835 12 12 12 6.63 0 12-5.3715 12-12 0-6.6165-5.37-12-12-12z" fill-rule="evenodd"/></svg>