<svg height="24" viewBox="0 0 24 24" width="24" xmlns="http://www.w3.org/2000/svg"><path d="m4.14209367 5.11867211 10.10448533-5.05287426c.150323-.07579311.3233839-.08463564.4825495-.0341069.1591655.05305518.289277.16674485.3650701.31706786l2.5264372 5.05413748c.1553758.31201498.029054.69098055-.282961.84761965-.0909517.04547587-.1869563.06568737-.2816977.06568737-.231169 0-.4547587-.12758508-.565922-.34864832l-2.2434761-4.48947878-9.53982663 4.77117652c-.31201498.15537588-.69098055.02905402-.84761965-.28296096-.15537589-.31201499-.02905403-.69098056.28296095-.84761966zm14.17710193 10.04258759h2.5264372c.3486483 0 .6316092.282961.6316092.6316093 0 .3499115-.2829609.6316093-.6316092.6316093h-2.5264372c-.3499115 0-.6316093-.2816978-.6316093-.6316093 0-.3486483.2816978-.6316093.6316093-.6316093zm3.7909189 3.15552h-3.7921821c-1.3958565 0-2.5277003-1.1318439-2.5277003-2.5277004s1.1318438-2.5277003 2.5277003-2.5277003h3.7921821zm-1.8986175 1.2644818v1.2606921c0 1.0446817-.8501461 1.8948278-1.8948278 1.8948278h-15.15862279c-1.04468175 0-1.89482785-.8501461-1.89482785-1.8948278v-12.67892475c.56592192.42444144 1.27332432.68213803 2.03125546.68213803l15.02219518-.00252644c1.0446817 0 1.8948278.85014609 1.8948278 1.89482786v1.2606921h-1.8935646c-2.0906267 0-3.7909189 1.7002922-3.7909189 3.7909189 0 2.0906268 1.7002922 3.7909189 3.7909189 3.7909189h1.8935646zm1.8986175-7.5831011h-.6353989v-1.2606921c0-1.74197841-1.416068-3.15804643-3.1580464-3.15804643l-15.02219518.00252644c-.99667945 0-1.85945773-.67582193-2.00599108-1.57270711-.09221496-.56971157.05810805-1.12173809.42444143-1.5512324.36128051-.42570466.88804266-.66950584 1.44638526-.66950584h1.26195535c.34864832 0 .63160928-.28169774.63160928-.63160928 0-.34864833-.28296096-.63160928-.63160928-.63160928h-1.26195535c-.92972886 0-1.80640255.40675637-2.4089578 1.11289555-.47370696.55960583-.72508746 1.26195535-.74024608 1.98830602 0 .0202115-.01010575.03789656-.01010575.05684484v15.15862279c0 1.7419784 1.41606801 3.1580464 3.15804641 3.1580464h15.15862279c1.7419784 0 3.1580464-1.416068 3.1580464-3.1580464v-1.2606921-.0012633h.6353989c.6972967 0 1.2632186-.5659219 1.2632186-1.2632185v-5.0554007c0-.6972967-.5659219-1.2632186-1.2632186-1.2632186z" fill-rule="evenodd"/></svg>