<svg height="24" viewBox="0 0 24 24" width="24" xmlns="http://www.w3.org/2000/svg"><path d="m13.7437751 11.9887588 9.8968754-9.89612597c.4788399-.47842603.4791754-1.2544434.0007493-1.7332833-.478426-.47883991-1.2544434-.47917541-1.7332833-.00074937l-9.8968753 9.89912344-9.89912343-9.89912344c-.48041226-.46927281-1.24896051-.46468252-1.72373307.01029531-.47477256.47497782-.47903065 1.24352798-.00955023 1.72373736l9.89837403 9.89612597-9.8968753 9.8983741c-.32213954.3069167-.45270235.7642784-.34113734 1.1950046.11156502.4307261.44774264.7671945.87837215.8791319.43062952.1119375.88810396-.0182298 1.19529913-.3401039l9.89762466-9.8991234 9.8976247 9.8991234c.481994.4592172 1.2423822.4498536 1.7129219-.0210931.4705398-.4709468.4792458-1.2313429.0196121-1.7129395z"/></svg>